<svg width="30" height="30" viewBox="0 0 30 30" fill="none" xmlns="http://www.w3.org/2000/svg">
<path d="M7.48802 14.0174H0C0 9.39173 4.42895 -0.251702 15.113 0.00502606C26.3451 0.274923 29.9977 9.98125 29.9977 14.0174H22.5097C22.4184 13.0651 21.1856 7.6234 14.8391 7.6234C9.76183 7.6234 7.82285 11.8861 7.48802 14.0174Z" fill="#969696"/>
<path d="M22.5118 15.9764L29.9998 15.9776C29.9991 20.6049 25.5686 30.2511 14.8845 29.9926C3.65251 29.7208 0.00146543 20.0104 0.00211277 15.9728L7.4901 15.974C7.58126 16.9267 8.81317 22.3705 15.1597 22.3715C20.237 22.3723 22.1766 18.1084 22.5118 15.9764Z" fill="#969696"/>
<path d="M15.0214 10.2068C11.4024 10.2068 10.1655 13.2916 10.1655 15.1515C10.1655 16.7846 11.5398 19.96 15.0672 19.96C18.5947 19.96 19.8774 16.6485 19.8774 15.1515C19.8774 13.4123 18.6405 10.2068 15.0214 10.2068Z" fill="#969696"/>
</svg>
