<svg width="32" height="32" viewBox="0 0 32 32" fill="none" xmlns="http://www.w3.org/2000/svg">
<path d="M12.4276 4.04688C12.366 4.04688 12.3042 4.04875 12.2419 4.05275C11.2473 4.11619 10.2391 4.77363 9.88069 5.73632C7.75119 11.4571 6.68788 13.7904 6.03694 19.6661C6.9515 20.5092 8.01382 21.3192 9.17757 22.0489L13.3279 9.76969L14.4334 10.1427L10.2048 22.6563C11.4242 23.3361 12.7317 23.9209 14.0798 24.3613L18.7928 11.7656L19.8865 12.1738L15.2029 24.6914C16.4188 25.0099 17.6533 25.2039 18.8767 25.2461L23.8339 14.0938L24.9023 14.5684L20.1601 25.2344C21.5238 25.1571 22.8604 24.8739 24.1249 24.3419C26.8322 20.9766 28.6644 17.4804 29.4061 13.5488C29.7244 11.8618 28.4835 10.2285 26.0174 10.1231L25.6327 10.1055L25.4959 9.74613C24.9678 8.34688 24.2616 7.86532 23.5272 7.71675C22.7928 7.56825 21.948 7.81269 21.3104 8.17775L20.4939 8.64463L20.4373 7.70713C20.3754 6.68238 19.7909 5.85732 18.9178 5.4805C18.0446 5.10363 16.8513 5.1535 15.492 6.09963L14.8396 6.55275L14.6014 5.79494C14.1941 4.49707 13.3509 4.04588 12.4276 4.04682L12.4276 4.04688ZM6.45482 11.7715C4.44625 14.5905 2.98282 18.7225 3.21275 22.4785C4.934 23.8435 6.62588 24.5843 8.21669 24.6934C9.10138 24.754 9.96294 24.6256 10.8045 24.291C8.58919 23.2138 6.5945 21.8202 5.01738 20.3204L4.80844 20.1231L4.83969 19.8359C5.20182 16.421 5.71132 14.1171 6.45494 11.7715H6.45482Z" fill="#969696"/>
</svg>
