<svg width="30" height="30" viewBox="0 0 30 30" fill="none" xmlns="http://www.w3.org/2000/svg">
<path d="M12.7399 23.9508C12.5362 23.9538 12.3363 23.8878 12.1656 23.7611C11.9949 23.6345 11.8612 23.4529 11.7813 23.2394C11.7015 23.0259 11.6792 22.7902 11.7173 22.5623C11.7554 22.3344 11.8522 22.1245 11.9953 21.9593C12.1384 21.7942 12.3214 21.6812 12.521 21.6348C12.7206 21.5884 12.9278 21.6107 13.1163 21.6988C13.3048 21.7868 13.466 21.9367 13.5795 22.1294C13.693 22.3221 13.7536 22.5489 13.7536 22.7809C13.7536 23.0885 13.6473 23.3838 13.4576 23.6027C13.2678 23.8217 13.01 23.9467 12.7399 23.9508Z" fill="#969696"/>
<path d="M17.7007 23.9507C18.2605 23.9507 18.7144 23.4339 18.7144 22.7963C18.7144 22.1587 18.2605 21.6418 17.7007 21.6418C17.1409 21.6418 16.687 22.1587 16.687 22.7963C16.687 23.4339 17.1409 23.9507 17.7007 23.9507Z" fill="#969696"/>
<path d="M18.0522 30H11.9161C10.2349 30 8.62255 29.2394 7.43377 27.8856C6.245 26.5317 5.57715 24.6955 5.57715 22.7809C5.57715 20.8663 6.245 19.0301 7.43377 17.6762C8.62255 16.3224 10.2349 15.5618 11.9161 15.5618H18.0522C19.7334 15.5618 21.3457 16.3224 22.5345 17.6762C23.7233 19.0301 24.3911 20.8663 24.3911 22.7809C24.3911 24.6955 23.7233 26.5317 22.5345 27.8856C21.3457 29.2394 19.7334 30 18.0522 30ZM11.9161 17.8707C10.7726 17.8707 9.67591 18.388 8.86734 19.3089C8.05877 20.2297 7.60452 21.4786 7.60452 22.7809C7.60452 24.0832 8.05877 25.3321 8.86734 26.253C9.67591 27.1738 10.7726 27.6911 11.9161 27.6911H18.0522C18.6184 27.6911 19.1791 27.5641 19.7022 27.3174C20.2253 27.0706 20.7006 26.7089 21.101 26.253C21.5013 25.797 21.8189 25.2557 22.0356 24.66C22.2523 24.0642 22.3638 23.4257 22.3638 22.7809C22.3638 22.1361 22.2523 21.4976 22.0356 20.9019C21.8189 20.3061 21.5013 19.7648 21.101 19.3089C20.7006 18.8529 20.2253 18.4912 19.7022 18.2445C19.1791 17.9977 18.6184 17.8707 18.0522 17.8707H11.9161Z" fill="#969696"/>
<path d="M25.7967 20.118H22.1745C21.9056 20.118 21.6478 19.9964 21.4577 19.7799C21.2676 19.5634 21.1608 19.2697 21.1608 18.9636C21.1608 18.6574 21.2676 18.3638 21.4577 18.1473C21.6478 17.9308 21.9056 17.8091 22.1745 17.8091H25.7967C26.3595 17.8091 26.8992 17.5545 27.2972 17.1013C27.6951 16.6481 27.9187 16.0334 27.9187 15.3925C27.9187 11.9374 26.7145 8.62363 24.5705 6.17907C22.4265 3.73452 19.5182 2.35913 16.4843 2.35505H13.6325C10.5974 2.35913 7.6877 3.73402 5.54158 6.17813C3.39546 8.62225 2.18819 11.936 2.18462 15.3925C2.18462 16.0334 2.40818 16.6481 2.80613 17.1013C3.20408 17.5545 3.74381 17.8091 4.3066 17.8091H7.79368C8.06252 17.8091 8.32036 17.9308 8.51046 18.1473C8.70056 18.3638 8.80736 18.6574 8.80736 18.9636C8.80736 19.2697 8.70056 19.5634 8.51046 19.7799C8.32036 19.9964 8.06252 20.118 7.79368 20.118H4.23902C3.14434 20.1059 2.09791 19.6031 1.32635 18.7187C0.554789 17.8342 0.120202 16.6392 0.116699 15.3925C0.116699 11.3102 1.54068 7.39502 4.07539 4.50836C6.61009 1.62171 10.0479 0 13.6325 0H16.4843C18.2593 0 20.0168 0.398139 21.6566 1.17169C23.2964 1.94523 24.7864 3.07903 26.0415 4.50836C27.2965 5.93769 28.2921 7.63455 28.9713 9.50205C29.6505 11.3696 30.0001 13.3711 30.0001 15.3925C29.9984 16.0177 29.8881 16.6363 29.6755 17.2128C29.463 17.7892 29.1525 18.3121 28.7618 18.7513C28.3711 19.1905 27.908 19.5374 27.3991 19.7719C26.8902 20.0065 26.3457 20.1241 25.7967 20.118Z" fill="#969696"/>
<path d="M3.04948 15.9159C2.27222 15.9148 1.50202 15.7477 0.778829 15.4233C0.639739 15.3856 0.50923 15.3148 0.395874 15.2155C0.282518 15.1163 0.188879 14.9908 0.121107 14.8475C0.0533349 14.7041 0.0129635 14.546 0.00264384 14.3836C-0.00767584 14.2212 0.0122897 14.0581 0.0612293 13.9051C0.110169 13.7521 0.186975 13.6127 0.286604 13.4959C0.386233 13.3791 0.50643 13.2876 0.639302 13.2275C0.772174 13.1673 0.914714 13.1399 1.05756 13.1469C1.20041 13.154 1.34033 13.1953 1.46813 13.2683C1.95326 13.4925 2.4719 13.6074 2.99542 13.607C3.86982 13.6227 4.72524 13.316 5.43407 12.7327C6.1429 12.1494 6.66714 11.3207 6.92859 10.3704C7.19004 9.41998 7.17468 8.3988 6.88481 7.45916C6.59494 6.51953 6.04609 5.71181 5.32014 5.1565C5.11386 4.97775 4.97554 4.71581 4.93361 4.42451C4.89167 4.13321 4.94932 3.83468 5.09469 3.59029C5.24006 3.3459 5.46211 3.17421 5.71521 3.11051C5.9683 3.04682 6.2332 3.09595 6.45547 3.24782C7.53528 4.07778 8.35257 5.28065 8.78701 6.67933C9.22144 8.07802 9.25006 9.59861 8.86865 11.0172C8.48724 12.4358 7.71595 13.6775 6.66835 14.5593C5.62076 15.4412 4.35221 15.9167 3.04948 15.9159Z" fill="#969696"/>
<path d="M28.851 15.8851H28.7699C26.5827 15.6807 24.5426 14.5486 23.0533 12.7128C21.5641 10.8771 20.7342 8.47157 20.728 5.97229C20.7274 4.75638 20.9245 3.55084 21.3092 2.41662C21.3589 2.27512 21.4326 2.14616 21.526 2.0371C21.6195 1.92803 21.7309 1.841 21.8539 1.78096C21.9769 1.72093 22.1091 1.68908 22.2429 1.68722C22.3767 1.68536 22.5095 1.71354 22.6338 1.77014C22.758 1.82673 22.8712 1.91065 22.967 2.01709C23.0628 2.12352 23.1392 2.2504 23.1919 2.39048C23.2446 2.53055 23.2726 2.68108 23.2742 2.83346C23.2759 2.98585 23.2511 3.1371 23.2014 3.2786C22.9008 4.13506 22.7493 5.04995 22.7554 5.97229C22.7694 7.88785 23.4101 9.72863 24.5523 11.1348C25.6946 12.541 27.2563 13.4115 28.9321 13.5762C29.1999 13.6036 29.4476 13.7496 29.622 13.9827C29.7963 14.2158 29.8835 14.5175 29.8647 14.823C29.8443 15.1129 29.7285 15.3833 29.5406 15.5802C29.3527 15.7771 29.1064 15.886 28.851 15.8851Z" fill="#969696"/>
</svg>
