<svg width="192" height="50" viewBox="0 0 192 50" fill="none" xmlns="http://www.w3.org/2000/svg">
<path d="M0 50V0H19.5C23.881 0 27.6189 0.690465 30.7143 2.07143C33.8096 3.45239 36.1904 5.45239 37.8571 8.07143C39.5239 10.6905 40.3571 13.8095 40.3571 17.4286C40.3571 21.0475 39.5239 24.1668 37.8571 26.7857C36.1904 29.3571 33.8096 31.3571 30.7143 32.7857C27.6189 34.1668 23.881 34.8571 19.5 34.8571H3.92857L7.14286 31.5V50H0ZM7.14286 32.2143L3.92857 28.6429H19.2857C23.8571 28.6429 27.3096 27.6668 29.6429 25.7143C32.0239 23.7618 33.2143 21 33.2143 17.4286C33.2143 13.8571 32.0239 11.0952 29.6429 9.14286C27.3096 7.19046 23.8571 6.21429 19.2857 6.21429H3.92857L7.14286 2.64286V32.2143Z" fill="#969696"/>
<path d="M109.94 37.9286L109.583 29.2143L137.94 0H146.083L124.154 23.1429L120.154 27.5714L109.94 37.9286ZM103.654 50V0H110.797V50H103.654ZM139.083 50L118.583 26.1429L123.369 20.8571L147.44 50H139.083ZM161.493 21.5714H187.208V27.6429H161.493V21.5714ZM162.136 43.7857H191.279V50H154.993V0H190.279V6.21429H162.136V43.7857Z" fill="#969696"/>
<path d="M58.7593 23.4509H46.3208C46.3208 15.7671 53.6779 -0.251959 71.4255 0.174486C90.0836 0.622825 96.151 16.7462 96.151 23.4509H83.7125C83.5607 21.8688 81.5128 12.8296 70.9703 12.8296C62.5364 12.8296 59.3155 19.9103 58.7593 23.4509Z" fill="#FA5C55"/>
<path d="M83.7161 26.705L96.1546 26.707C96.1533 34.3937 88.7938 50.417 71.0463 49.9877C52.3885 49.5362 46.3234 33.406 46.3247 26.699L58.7629 26.701C58.9144 28.2834 60.9609 37.3266 71.5034 37.3283C79.9373 37.3296 83.1593 30.2465 83.7161 26.705Z" fill="#D9D9D9"/>
<path d="M71.2735 17.1209C65.2615 17.1209 63.207 22.2452 63.207 25.3345C63.207 28.0475 65.4901 33.3222 71.3496 33.3222C77.209 33.3222 79.3396 27.8212 79.3396 25.3345C79.3396 22.4455 77.2851 17.1209 71.2735 17.1209Z" fill="#969696"/>
</svg>
